<?xml version="1.0" standalone="no"?>
<!DOCTYPE svg PUBLIC "-//W3C//DTD SVG 20010904//EN"
 "http://www.w3.org/TR/2001/REC-SVG-20010904/DTD/svg10.dtd">
<svg version="1.0" xmlns="http://www.w3.org/2000/svg"
 width="299.000000pt" height="168.000000pt" viewBox="0 0 299.000000 168.000000"
 preserveAspectRatio="xMidYMid meet">
<metadata>
Created by potrace 1.16, written by Peter Selinger 2001-2019
</metadata>
<g transform="translate(0.000000,168.000000) scale(0.100000,-0.100000)"
fill="#000000" stroke="none">
<path d="M342 1619 c-6 -34 -13 -64 -16 -66 -4 -5 -282 52 -310 63 -7 3 -12
-18 -14 -61 -2 -59 -1 -65 17 -65 11 0 23 -6 27 -12 4 -7 4 -10 -1 -6 -10 9
-45 -9 -45 -23 0 -6 7 -8 16 -5 10 4 13 2 8 -6 -5 -7 0 -9 14 -6 14 4 20 2 16
-4 -4 -6 1 -8 11 -6 18 3 31 38 14 38 -5 0 -9 4 -9 10 0 5 7 7 15 4 9 -4 14
-14 13 -23 -2 -9 3 -15 11 -13 20 4 41 -17 34 -36 -6 -14 -5 -14 8 -2 13 12
12 16 -6 35 -11 12 -23 20 -27 18 -5 -2 -8 1 -8 6 0 14 1 14 107 -10 51 -12
90 -25 87 -30 -3 -5 0 -9 5 -9 6 0 11 4 11 9 0 5 20 3 44 -4 24 -8 47 -11 50
-8 3 4 6 1 6 -5 0 -6 -5 -14 -10 -17 -6 -4 -8 -10 -5 -15 3 -5 -3 -14 -14 -20
-12 -6 -22 -6 -26 -1 -3 5 5 12 17 14 l23 4 -22 2 c-13 0 -23 6 -23 12 0 6 9
9 20 6 11 -3 20 -1 20 4 0 13 -42 10 -60 -4 -9 -7 -17 -23 -17 -36 -3 -36 -23
-51 -53 -39 -24 9 -24 10 -6 24 16 11 22 11 35 1 12 -10 14 -9 8 6 -4 10 -7
21 -7 23 0 10 -25 2 -43 -13 -19 -17 -20 -17 -14 5 3 13 3 21 0 18 -11 -11
-32 15 -26 31 4 11 3 14 -6 9 -7 -5 -10 -13 -8 -20 6 -15 -41 -38 -49 -25 -4
6 -11 6 -18 0 -7 -6 -16 -8 -19 -4 -4 3 -7 -1 -7 -10 0 -10 -4 -17 -9 -17 -5
0 -7 9 -4 20 3 11 0 20 -6 20 -6 0 -11 8 -11 18 0 14 -2 15 -10 2 -5 -8 -18
-16 -30 -16 -44 -3 -46 -4 -32 -12 10 -7 10 -15 2 -37 -8 -21 -7 -31 3 -44 24
-27 39 -61 27 -61 -6 0 -15 12 -21 28 -6 15 -13 22 -16 15 -2 -7 0 -21 6 -32
14 -26 14 -34 -1 -25 -6 4 -8 3 -5 -4 4 -5 16 -8 27 -5 16 4 19 2 14 -11 -3
-9 -11 -13 -18 -9 -6 4 -4 -2 4 -12 8 -10 10 -16 4 -12 -7 4 -17 1 -23 -6 -8
-11 -6 -13 12 -13 12 1 25 6 29 11 4 6 8 -3 8 -20 0 -16 -4 -25 -8 -19 -4 5
-16 10 -28 10 -19 0 -20 -7 -22 -111 -1 -73 2 -105 8 -95 8 13 10 12 10 -2 0
-20 11 -23 26 -8 6 6 15 6 24 0 13 -8 12 -10 -2 -10 -21 0 -24 -30 -6 -48 15
-15 8 -15 -26 -2 -30 11 -44 -3 -26 -25 9 -11 9 -23 0 -49 -8 -24 -11 -148 -9
-405 2 -350 3 -371 20 -371 11 0 19 9 21 23 4 30 42 30 46 0 4 -25 32 -32 32
-8 0 18 39 20 45 2 4 -9 46 -13 158 -15 135 -3 150 -2 132 11 -28 22 -4 48 36
40 36 -7 39 16 9 54 -11 14 -20 32 -20 39 0 9 -12 14 -32 15 -28 0 -30 2 -13
10 18 8 18 8 -5 6 -14 -1 -33 6 -42 16 -23 22 -57 24 -38 2 11 -13 8 -15 -19
-15 -24 0 -102 28 -129 45 -6 4 64 310 76 330 4 6 7 25 8 43 0 18 7 38 14 45
10 10 11 9 5 -3 -7 -12 -6 -13 6 -3 12 9 29 9 79 -3 36 -9 75 -16 87 -16 18 0
20 -3 10 -12 -7 -7 -26 -17 -42 -23 -28 -9 -30 -13 -30 -61 0 -29 -3 -52 -6
-52 -11 0 -4 -74 9 -97 6 -12 9 -35 6 -51 -9 -43 19 -94 71 -131 43 -31 44
-31 55 -11 6 12 11 31 10 43 -5 57 2 79 36 117 41 45 82 54 91 20 5 -17 7 -18
20 -4 11 11 13 26 9 57 -4 23 -9 61 -12 84 -4 25 -10 40 -16 37 -11 -7 -28 13
-28 33 0 15 29 10 40 -6 4 -8 9 -9 11 -3 6 16 59 2 59 -15 0 -13 9 -14 42 -10
24 3 36 2 29 -3 -10 -5 -3 -10 20 -15 20 -5 34 -4 37 3 2 6 14 7 30 3 19 -6
26 -13 24 -27 -3 -18 -3 -18 13 1 14 17 16 17 11 3 -7 -22 10 -24 22 -2 8 15
10 15 15 0 5 -11 3 -15 -5 -10 -7 4 -8 3 -4 -4 9 -15 33 -15 42 0 4 7 3 8 -4
4 -7 -4 -12 -2 -12 3 0 14 27 14 32 1 2 -5 18 -10 36 -12 18 -1 40 -11 49 -21
16 -17 16 -17 0 -11 -18 6 -24 -10 -8 -20 12 -8 0 -77 -58 -331 -7 -32 -15
-34 -83 -17 -49 13 -53 -10 -5 -26 l32 -11 -33 5 c-31 5 -33 4 -30 -18 3 -23
5 -23 141 -26 119 -3 137 -1 137 12 0 9 4 16 9 16 5 0 25 33 44 74 47 95 94
152 125 148 25 -4 31 22 8 35 -12 7 -12 14 -1 45 12 37 12 38 -16 52 -28 14
-29 14 -29 -11 0 -18 -4 -24 -15 -19 -8 3 -15 0 -15 -6 0 -6 -3 -8 -7 -4 -4 3
-7 26 -8 50 0 42 1 43 22 35 13 -5 23 -5 23 -1 0 4 7 -1 14 -11 8 -10 17 -18
20 -18 20 3 26 0 21 -9 -7 -12 25 -13 42 -2 10 6 148 -10 148 -18 0 -1 12 -3
26 -5 41 -5 229 -45 284 -59 28 -8 78 -19 112 -26 l62 -13 -14 -28 c-19 -35
-19 -39 0 -39 8 0 14 3 14 8 -4 22 3 32 21 32 24 0 24 2 5 -80 -22 -94 -22
-95 -41 -79 -14 11 -32 13 -90 10 -10 -1 -14 -7 -11 -15 4 -9 -5 -19 -24 -26
-34 -15 -48 -7 -29 15 7 9 10 18 6 22 -10 10 -46 11 -40 1 3 -4 -2 -8 -10 -8
-9 0 -18 13 -22 35 -5 30 -12 37 -44 46 -21 7 -46 9 -55 5 -20 -7 -16 -41 5
-41 8 0 23 -13 32 -30 24 -42 22 -48 -7 -20 -25 26 -40 31 -49 16 -10 -16 -50
11 -67 45 -9 19 -12 31 -7 28 5 -4 8 4 6 17 -2 17 -9 23 -23 21 -16 -2 -17 -1
-5 7 12 8 11 14 -10 38 -17 19 -19 22 -4 10 19 -15 56 -25 41 -11 -9 10 12 46
24 39 11 -8 12 5 0 23 -6 11 -10 10 -15 -3 -5 -14 -9 -15 -20 -6 -11 9 -15 9
-18 -1 -3 -8 -7 -6 -11 5 -8 20 13 23 31 5 10 -10 12 -7 10 12 -3 27 -35 43
-55 27 -7 -5 -20 -7 -28 -3 -17 6 -40 -38 -31 -61 3 -7 1 -13 -4 -13 -6 0 -10
-9 -10 -21 0 -13 -4 -18 -12 -13 -8 5 -7 0 2 -11 14 -17 13 -18 -3 -12 -11 4
-16 3 -12 -3 3 -6 1 -10 -6 -10 -6 0 -2 -8 10 -17 20 -17 29 -44 30 -100 1
-16 6 -21 16 -17 8 4 12 10 9 15 -3 6 0 16 6 24 9 11 10 19 1 28 -8 10 -7 19
4 33 14 19 20 11 16 -22 -1 -6 6 -18 16 -25 11 -9 14 -10 9 -1 -4 6 -2 12 3
12 13 0 14 -12 3 -26 -4 -5 -6 -8 -4 -7 10 5 29 -24 25 -37 -3 -8 4 -4 16 10
11 14 21 23 21 20 6 -34 6 -69 0 -65 -4 3 -13 -1 -18 -8 -9 -10 4 -13 64 -16
68 -2 74 -1 74 17 0 18 3 19 25 9 14 -7 25 -16 25 -20 0 -8 107 -8 122 0 4 2
4 11 1 19 -5 13 -7 13 -14 2 -7 -10 -9 -9 -9 5 0 16 10 21 38 18 7 -1 11 2 10
6 -7 19 18 14 28 -6 6 -12 14 -22 18 -22 19 2 19 -1 2 -14 -18 -13 11 -15 257
-15 l277 0 -3 22 c-5 49 97 47 110 -2 5 -19 14 -20 139 -20 l134 0 0 195 0
195 -54 0 c-34 0 -56 -5 -58 -12 -3 -7 -7 -3 -10 9 -3 12 -3 22 1 21 3 0 33 0
66 2 71 2 49 18 -27 19 -46 1 -46 1 -39 29 7 26 10 27 64 24 l57 -4 0 201 c0
176 -2 201 -16 201 -12 0 -14 7 -9 33 4 17 11 33 16 35 5 2 9 53 9 113 0 86
-3 109 -14 109 -7 0 -18 6 -24 13 -13 16 3 57 23 57 13 0 15 25 15 178 0 128
-3 181 -12 190 -10 10 -10 15 2 23 11 8 12 12 3 16 -7 2 -13 11 -13 19 0 8 -7
14 -15 14 -8 0 -15 -4 -15 -10 0 -13 -37 -13 -45 0 -4 7 -440 10 -1274 10
l-1267 0 -12 -61z m1517 -8 c17 -11 23 -101 7 -101 -6 0 -17 -9 -24 -21 -8
-12 -9 -18 -3 -15 5 4 13 1 16 -4 13 -21 -6 -61 -38 -80 -20 -13 -26 -20 -15
-20 9 0 20 5 24 11 5 8 10 6 16 -5 5 -9 14 -14 19 -11 5 4 6 11 3 17 -4 7 -2
8 5 4 6 -4 18 -3 26 4 10 8 15 8 20 -1 6 -8 10 -7 17 2 7 11 8 9 4 -4 -3 -10
-6 -24 -6 -31 0 -7 -23 -37 -50 -69 -45 -49 -54 -55 -74 -47 -13 5 -27 6 -30
3 -3 -4 -6 -2 -6 3 0 6 13 23 30 39 25 24 27 31 18 49 -6 12 -20 27 -30 35
-12 8 -18 21 -15 32 3 11 2 17 -2 15 -14 -9 -32 60 -23 85 5 13 7 30 4 38 -3
8 3 29 13 48 15 26 24 33 49 33 17 0 37 -4 45 -9z m-462 -499 c12 -7 39 -39
62 -72 33 -50 38 -65 31 -84 -12 -31 -5 -36 33 -25 39 11 37 11 37 -1 0 -5 -7
-10 -16 -10 -8 0 -13 -4 -10 -9 3 -5 1 -23 -5 -40 l-11 -31 -22 42 c-11 24
-27 44 -33 44 -7 1 -17 2 -23 3 -5 0 -10 10 -10 20 0 14 -5 18 -19 14 -11 -3
-17 -11 -15 -17 3 -7 -2 -19 -11 -26 -13 -11 -15 -9 -13 11 2 15 -2 23 -9 22
-7 -2 -10 4 -7 12 4 9 0 15 -8 15 -8 0 -14 -9 -14 -21 1 -12 -5 -23 -12 -25
-7 -1 -8 0 -2 3 14 7 13 30 -2 36 -9 4 -9 8 -3 14 17 14 18 43 1 37 -9 -3 -12
-12 -9 -21 4 -10 2 -14 -4 -10 -6 4 -13 3 -15 -2 -1 -4 -28 -10 -58 -13 -30
-3 -49 -3 -42 -1 6 3 9 10 6 15 -4 6 1 17 11 25 12 8 14 13 6 13 -8 0 -2 11
13 27 15 14 26 34 25 42 -1 9 -1 18 0 21 2 10 127 3 148 -8z m997 -142 c5 -5
2 -34 -6 -69 -13 -50 -13 -61 -2 -65 9 -3 14 -21 14 -46 0 -28 -4 -39 -11 -34
-7 4 -9 0 -5 -12 3 -11 2 -25 -3 -32 -5 -9 -10 -2 -14 24 -7 43 -42 84 -71 84
-17 0 -21 6 -21 34 0 19 4 32 8 29 5 -3 7 3 6 13 -2 11 3 36 10 57 13 38 14
39 50 32 20 -4 40 -10 45 -15z m-684 -254 c4 -18 4 -55 0 -83 -4 -34 -3 -51 4
-50 6 1 12 -9 14 -23 4 -22 2 -23 -14 -10 -13 12 -18 12 -21 3 -3 -7 -11 -13
-19 -13 -9 0 -12 -5 -8 -12 5 -8 -2 -9 -25 -5 -18 4 -30 3 -27 -1 3 -5 -8 -6
-25 -4 -16 2 -29 8 -29 13 0 5 -14 9 -31 9 -39 0 -72 18 -65 35 3 8 0 15 -7
18 -20 6 -57 -5 -57 -18 0 -22 -18 -22 -117 -1 l-94 20 6 28 c5 22 3 28 -10
28 -10 0 -13 -5 -9 -12 4 -7 3 -8 -5 -4 -6 4 -22 1 -35 -7 -20 -14 -23 -14
-24 1 -1 31 21 122 30 122 5 0 8 -6 7 -12 -4 -33 2 -58 15 -58 8 0 16 -5 18
-12 3 -7 11 2 19 20 7 18 19 32 26 32 7 0 16 7 21 16 14 25 25 -1 12 -27 -20
-36 1 -35 33 1 35 39 107 86 107 69 0 -6 4 -8 9 -4 5 3 12 1 15 -4 4 -5 2 -12
-4 -16 -5 -3 -10 -11 -10 -17 0 -6 3 -9 6 -5 4 3 23 -5 43 -18 74 -51 137 -26
177 71 l18 43 24 -41 c14 -22 28 -55 32 -72z m898 47 c3 -32 -3 -42 -46 -82
-60 -57 -69 -73 -71 -136 -1 -27 -6 -66 -11 -86 -10 -37 -11 -37 -41 -27 -20
7 -28 15 -25 27 3 9 10 45 17 81 6 36 20 81 30 100 9 19 20 47 23 61 4 19 23
37 63 62 32 19 58 36 58 36 1 1 2 -15 3 -36z m-478 -84 c0 -5 10 -9 23 -10 18
0 19 -2 5 -7 -13 -5 -15 -11 -8 -22 5 -8 10 -10 10 -4 0 5 9 20 21 33 16 17
24 20 35 10 8 -6 14 -18 14 -25 0 -16 46 -19 55 -4 3 6 15 10 27 10 16 0 19
-5 16 -25 -3 -13 -1 -26 5 -28 15 -5 -22 -95 -47 -114 -18 -13 -19 -15 -2 -9
15 5 17 4 7 -7 -15 -19 -10 -65 8 -72 20 -8 24 0 11 25 -10 18 -9 25 4 38 14
15 18 15 31 1 12 -12 13 -21 4 -47 -6 -18 -15 -32 -20 -32 -4 0 -6 -6 -3 -14
3 -8 0 -17 -6 -21 -15 -9 -151 25 -144 36 3 5 11 6 17 3 9 -5 9 -4 1 5 -9 10
-17 10 -33 2 -22 -12 -33 -11 -186 21 -138 28 -139 28 -131 91 4 29 10 54 14
57 4 3 7 13 8 23 2 55 5 67 14 67 6 0 10 -9 10 -20 0 -15 7 -20 26 -20 14 0
34 -4 44 -10 14 -7 23 -4 43 16 15 14 30 23 35 20 5 -3 14 5 19 17 7 15 20 22
42 23 17 1 31 -3 31 -7z m-1563 -171 c38 -37 42 -69 13 -98 -11 -11 -20 -31
-20 -44 0 -31 -22 -48 -57 -44 -21 2 -29 9 -31 28 -2 14 -10 30 -18 36 -25 20
-28 67 -5 93 17 19 19 27 9 33 -9 6 -6 7 8 3 13 -3 26 1 34 10 18 22 30 19 67
-17z m1976 -110 c9 -5 17 -20 17 -34 0 -14 5 -34 11 -46 6 -11 8 -22 6 -24 -3
-3 -49 5 -102 18 -87 20 -98 26 -102 46 -2 17 3 25 17 29 11 3 20 9 20 14 0
12 110 9 133 -3z"/>
<path d="M2093 583 c-7 -2 -13 -13 -13 -23 0 -10 -5 -22 -11 -26 -6 -3 2 -14
20 -25 33 -20 39 -36 18 -45 -7 -2 -14 -14 -14 -26 -2 -16 1 -18 10 -9 16 16
37 14 37 -5 0 -14 3 -14 15 -4 13 11 13 15 3 21 -9 6 -10 9 -1 9 7 0 17 -8 22
-17 6 -11 11 -13 11 -5 0 7 4 11 9 8 5 -4 12 0 14 6 4 9 12 5 27 -12 20 -23
20 -23 10 -2 -7 15 -8 28 0 41 7 14 7 22 -1 27 -8 5 -6 10 5 16 16 9 23 30 9
26 -5 -1 -18 3 -30 10 -24 13 -75 13 -84 -1 -4 -5 -16 -4 -29 3 -13 7 -20 8
-16 2 3 -6 3 -13 -2 -16 -12 -7 -11 26 1 42 10 13 9 13 -10 5z"/>
<path d="M693 136 c-6 -8 -9 -17 -6 -20 4 -3 1 -6 -5 -6 -6 0 -9 -6 -6 -14 3
-7 -7 -23 -22 -35 -29 -23 -50 -27 -56 -11 -1 5 -11 -4 -20 -20 l-17 -30 105
0 104 0 -16 25 c-12 18 -14 35 -9 66 5 30 3 44 -6 50 -19 12 -32 11 -46 -5z"/>
</g>
</svg>
