<?xml version="1.0" standalone="no"?>
<!DOCTYPE svg PUBLIC "-//W3C//DTD SVG 20010904//EN"
 "http://www.w3.org/TR/2001/REC-SVG-20010904/DTD/svg10.dtd">
<svg version="1.0" xmlns="http://www.w3.org/2000/svg"
 width="360.000000pt" height="360.000000pt" viewBox="0 0 360.000000 360.000000"
 preserveAspectRatio="xMidYMid meet">
<metadata>
Created by potrace 1.16, written by Peter Selinger 2001-2019
</metadata>
<g transform="translate(0.000000,360.000000) scale(0.100000,-0.100000)"
fill="#000000" stroke="none">
<path d="M1620 3483 c-605 -79 -1109 -487 -1299 -1049 -73 -217 -99 -416 -81
-625 41 -489 280 -905 678 -1177 247 -170 514 -257 818 -269 454 -18 861 142
1179 462 522 526 601 1357 186 1971 -232 344 -577 576 -992 665 -70 15 -141
21 -274 24 -99 2 -196 1 -215 -2z m401 -429 c348 -66 650 -297 813 -621 86
-173 121 -346 113 -557 -8 -193 -42 -321 -130 -491 -212 -407 -671 -654 -1127
-606 -493 52 -876 383 -1008 870 -23 87 -26 113 -26 276 1 161 3 190 26 276
34 125 77 227 137 325 254 411 726 619 1202 528z"/>
</g>
</svg>
