<?xml version="1.0" standalone="no"?>
<!DOCTYPE svg PUBLIC "-//W3C//DTD SVG 20010904//EN"
 "http://www.w3.org/TR/2001/REC-SVG-20010904/DTD/svg10.dtd">
<svg version="1.0" xmlns="http://www.w3.org/2000/svg"
 width="225.000000pt" height="225.000000pt" viewBox="0 0 225.000000 225.000000"
 preserveAspectRatio="xMidYMid meet">
<metadata>
Created by potrace 1.16, written by Peter Selinger 2001-2019
</metadata>
<g transform="translate(0.000000,225.000000) scale(0.100000,-0.100000)"
fill="#000000" stroke="none">
<path d="M0 1735 l0 -195 54 0 c47 0 57 -4 75 -26 20 -26 21 -38 21 -391 l0
-364 -25 -24 c-19 -20 -34 -25 -75 -25 l-50 0 0 -195 0 -195 1125 0 1125 0 0
195 0 195 -55 0 c-43 0 -58 5 -75 22 -19 21 -20 33 -20 388 0 429 -4 410 91
410 l59 0 0 200 0 200 -1125 0 -1125 0 0 -195z m300 5 l0 -60 -75 0 -75 0 0
60 0 60 75 0 75 0 0 -60z m300 0 l0 -60 -75 0 -75 0 0 60 0 60 75 0 75 0 0
-60z m300 0 l0 -60 -75 0 -75 0 0 60 0 60 75 0 75 0 0 -60z m300 0 l0 -60 -75
0 -75 0 0 60 0 60 75 0 75 0 0 -60z m300 0 l0 -60 -75 0 -75 0 0 60 0 60 75 0
75 0 0 -60z m241 50 l59 0 0 -55 0 -55 -75 0 -75 0 0 61 c0 52 2 60 16 55 9
-3 42 -6 75 -6z m359 -55 l0 -55 -75 0 -75 0 0 55 0 55 75 0 75 0 0 -55z
m-1086 -205 c14 -5 35 -24 46 -42 19 -31 20 -51 20 -361 0 -361 -2 -372 -60
-402 -26 -14 -79 -15 -371 -13 l-341 3 -29 33 -29 32 0 344 c0 336 0 344 21
370 12 15 31 32 43 36 30 12 669 12 700 0z m933 -10 c21 -13 35 -31 42 -57 14
-51 14 -625 0 -676 -7 -25 -21 -45 -42 -58 -30 -18 -49 -19 -375 -17 l-344 3
-29 33 -29 32 0 346 0 346 34 34 34 34 339 0 c317 0 340 -1 370 -20z m-1647
-1005 l0 -65 -75 0 -75 0 0 65 0 65 75 0 75 0 0 -65z m300 0 l0 -65 -75 0 -75
0 0 65 0 65 75 0 75 0 0 -65z m300 6 c0 -68 -3 -71 -91 -71 l-59 0 0 65 0 65
75 0 75 0 0 -59z m300 -6 l0 -55 -75 0 -75 0 0 55 0 55 75 0 75 0 0 -55z m300
0 l0 -55 -75 0 -75 0 0 55 0 55 75 0 75 0 0 -55z m300 0 l0 -55 -75 0 -75 0 0
55 0 55 75 0 75 0 0 -55z m300 0 l0 -55 -75 0 -75 0 0 55 0 55 75 0 75 0 0
-55z"/>
</g>
</svg>
