<?xml version="1.0" standalone="no"?>
<!DOCTYPE svg PUBLIC "-//W3C//DTD SVG 20010904//EN"
 "http://www.w3.org/TR/2001/REC-SVG-20010904/DTD/svg10.dtd">
<svg version="1.0" xmlns="http://www.w3.org/2000/svg"
 width="1200.000000pt" height="1200.000000pt" viewBox="0 0 1200.000000 1200.000000"
 preserveAspectRatio="xMidYMid meet">
<metadata>
Created by potrace 1.16, written by Peter Selinger 2001-2019
</metadata>
<g transform="translate(0.000000,1200.000000) scale(0.100000,-0.100000)"
fill="#000000" stroke="none">
<path d="M6445 8729 c-204 -17 -379 -65 -560 -153 -447 -219 -770 -629 -874
-1107 -27 -129 -43 -332 -35 -453 l6 -101 -173 3 c-263 4 -453 -30 -669 -123
-397 -170 -754 -555 -889 -960 -52 -156 -72 -274 -78 -465 -10 -327 52 -595
202 -860 289 -513 815 -820 1405 -820 809 0 1482 586 1600 1394 13 84 16 345
6 393 l-6 28 202 0 c230 1 343 18 523 78 327 111 630 347 831 647 269 404 335
924 177 1405 -108 331 -359 655 -659 848 -220 142 -459 223 -725 247 -126 11
-140 11 -284 -1z m296 -775 c339 -64 604 -328 675 -672 20 -94 14 -295 -11
-387 -9 -33 -38 -105 -65 -160 -83 -169 -214 -299 -385 -381 -139 -67 -195
-79 -375 -79 -135 0 -165 3 -230 23 -371 117 -610 438 -610 821 0 237 88 445
260 611 199 193 470 275 741 224z m-1737 -1829 c298 -86 520 -311 597 -605
103 -396 -94 -814 -466 -986 -127 -59 -227 -77 -390 -71 -107 3 -156 10 -210
27 -288 92 -498 312 -576 605 -28 104 -31 306 -6 408 40 162 121 300 244 418
120 114 266 193 408 218 33 6 71 13 85 15 62 11 229 -4 314 -29z"/>
<path d="M8270 6498 c0 -7 -29 -69 -63 -138 -265 -527 -649 -845 -1183 -981
-121 -30 -306 -59 -382 -59 -27 0 -53 -5 -60 -12 -7 -7 -12 -35 -12 -63 0 -79
-27 -249 -61 -383 -135 -546 -467 -939 -1014 -1203 l-120 -58 1453 -1 1452 0
0 1455 c0 800 -2 1455 -5 1455 -3 0 -5 -6 -5 -12z"/>
<path d="M8470 4845 l0 -655 205 0 205 0 0 655 0 655 -205 0 -205 0 0 -655z"/>
</g>
</svg>
